<?xml version="1.0" encoding="UTF-8" standalone="no"?>
<!-- Created with Inkscape (http://www.inkscape.org/) -->

<svg
   xmlns:dc="http://purl.org/dc/elements/1.1/"
   xmlns:cc="http://creativecommons.org/ns#"
   xmlns:rdf="http://www.w3.org/1999/02/22-rdf-syntax-ns#"
   xmlns:svg="http://www.w3.org/2000/svg"
   xmlns="http://www.w3.org/2000/svg"
   xmlns:sodipodi="http://sodipodi.sourceforge.net/DTD/sodipodi-0.dtd"
   xmlns:inkscape="http://www.inkscape.org/namespaces/inkscape"
   width="309.85587mm"
   height="74.849548mm"
   viewBox="0 0 1097.9145 265.21493"
   id="svg2"
   version="1.1"
   inkscape:version="0.91 r13725"
   sodipodi:docname="gpn-full-yellow-dark.svg">
  <defs
     id="defs4" />
  <sodipodi:namedview
     id="base"
     pagecolor="#ffffff"
     bordercolor="#666666"
     borderopacity="1.0"
     inkscape:pageopacity="0.0"
     inkscape:pageshadow="2"
     inkscape:zoom="0.49497475"
     inkscape:cx="464.50819"
     inkscape:cy="144.83137"
     inkscape:document-units="px"
     inkscape:current-layer="layer1"
     showgrid="false"
     inkscape:window-width="1280"
     inkscape:window-height="790"
     inkscape:window-x="-8"
     inkscape:window-y="-8"
     inkscape:window-maximized="1"
     fit-margin-top="0"
     fit-margin-left="0"
     fit-margin-right="0"
     fit-margin-bottom="0" />
  <metadata
     id="metadata7">
    <rdf:RDF>
      <cc:Work
         rdf:about="">
        <dc:format>image/svg+xml</dc:format>
        <dc:type
           rdf:resource="http://purl.org/dc/dcmitype/StillImage" />
        <dc:title></dc:title>
      </cc:Work>
    </rdf:RDF>
  </metadata>
  <g
     inkscape:label="Layer 1"
     inkscape:groupmode="layer"
     id="layer1"
     transform="translate(160.50846,-425.49884)">
    <g
       style="display:none;fill:#800000"
       id="Layer_2"
       display="none"
       transform="translate(-216.84397,87.688986)">
      <rect
         style="display:inline;fill:#800000"
         y="0"
         x="0"
         display="inline"
         width="1190.55"
         height="841.89001"
         id="rect3339" />
      <path
         style="display:inline;fill:#800000"
         inkscape:connector-curvature="0"
         display="inline"
         d="m 474,540.5 c 0,0 150.5,0 161.25,0 10.75,0 23,-0.75 23.5,7.5 0.5,8.25 -0.5,19 0,26.25 0.5,7.25 -1,14 -7.25,14 -6.25,0 -168,0 -168,0 0,0 -39.5,-0.25 -45,-1.5 -5.5,-1.25 -5.512,-7.5 -5.512,-15.25 0,-7.75 -0.488,-19.75 1.762,-25 2.25,-5.25 5,-6.018 10.75,-6.018 5.75,0 28.5,0.018 28.5,0.018 z"
         id="path3341" />
    </g>
    <g
       style="fill:#c6a700;fill-opacity:1"
       id="graphic"
       transform="translate(-216.84397,87.688986)">
      <path
         style="fill:#c6a700;fill-opacity:1"
         inkscape:connector-curvature="0"
         d="m 121.666,424.667 c 0,0 -10.333,-4.167 -19.333,-14.167 -9,-10 -11.5,-28.5 -9,-39.5 2.5,-11 13,-23.333 24.667,-29.333 11.667,-6 32.666,-5 43.666,3 11,8 19.334,20.333 20.334,30 1,9.667 -0.667,22.333 -7,31.333 -6.334,9 -14.333,14 -18,15.5 -3.667,1.5 -5.334,3.167 -5.334,3.167 l 5,7 c 0,0 36.001,-18.333 42.334,-20.667 6.333,-2.334 16.333,-6.333 19.333,1.667 3,8 -10.333,17 -23.333,24 -13,7 -29.334,15.666 -29.334,15.666 l 42,85.331 -34,1.667 c 0,0 1,27.998 0,37.998 -1,10 -2.667,25.008 -12.333,25.671 -9.666,0.663 -14.666,-16.337 -15.333,-22.337 -0.667,-6 -2.333,-42.334 -2.333,-42.334 l -12.334,0 c 0,0 -1.333,30.334 -3,39.667 -1.666,9.333 -5.333,25.378 -13.666,25.023 -8.333,-0.356 -14,-12.023 -14,-17.69 0,-5.667 -0.667,-46.333 -0.667,-46.333 l -33.667,0 42,-87.667 c 0,0 -26.333,-12.996 -36.333,-18.996 -10,-6 -18.667,-13 -14.667,-21.667 4,-8.667 22.333,3.333 28,5.667 5.667,2.334 33.333,17 33.333,17 l 4.334,-7.667 -1.334,-0.999 z"
         id="path3344" />
      <path
         style="fill:#c6a700;fill-opacity:1"
         inkscape:connector-curvature="0"
         d="m 323.334,462.668 c 0,0 -0.334,-20.334 0,-22.334 0.333,-2 3.333,-6.999 7.333,-6.666 4,0.333 6.001,3.666 6.334,9.333 0.333,5.667 0,19.667 0,19.667 0,0 13,0 18,0 5,0 11,2.832 11,7.749 0,4.917 -5.001,5.584 -14.667,5.584 -9.667,0 -13.667,0 -13.667,0 0,0 -0.666,10.667 -1,16.667 -0.333,6 1,13.666 -6.333,13.666 -7.333,0 -5,-6 -5.667,-9.333 -0.666,-3.333 0,-20.333 0,-20.333 0,0 -13,0 -19.333,0 -6.333,0 -11,-2.683 -11,-6.675 0,-3.992 3.667,-6.992 14.667,-6.992 11,0 14.333,-0.333 14.333,-0.333 z"
         id="path3346" />
      <path
         style="fill:#c6a700;fill-opacity:1"
         inkscape:connector-curvature="0"
         d="m 450.335,506.334 0,-121.666 193.667,-1.333 9,-10.333 c 0,0 -4.668,-9 -14.334,-10 -9.666,-1 -67.333,-2.333 -99.333,-2.333 -32,0 -86,0.666 -92,4.333 -6,3.667 -14.333,13.333 -14.333,34 0,20.667 -0.333,96.999 2.333,107.333 2.666,10.334 12.667,21 48,21 35.333,0 122.333,0 146,0 23.667,0 27.999,-19 27.999,-28 0,-9 1.002,-51.999 1.668,-69.666 0.666,-17.667 2,-33.667 0,-42 -2,-8.333 -3,-12 -3,-12 l -11.334,13.333 -0.666,1.667 c 0,0 0,1.818 0,4.839 0,9.315 0,30.065 0,44.161 0,18.666 0,40.667 0,51 0,10.333 -1,18 -1,18 l -192.667,-2.335 z"
         id="path3348" />
      <path
         style="fill:#c6a700;fill-opacity:1"
         inkscape:connector-curvature="0"
         d="m 644.167,385.34 c 0,-2.006 -6.083,-6.083 -6.083,-6.083 l 9.333,-9.333 3.451,0 c 0,0 6.326,2.603 7.756,16.174 1.43,13.572 -14.622,10.575 -14.622,10.575 l 0.165,-11.333 z"
         id="path3350" />
      <path
         style="fill:#c6a700;fill-opacity:1"
         inkscape:connector-curvature="0"
         d="m 537.75,540.5 c 0,0 101.75,0.25 108.5,0.25 6.75,0 12,-0.5 12.25,14 0.25,14.5 2,28.75 -3.75,31 C 649,588 552,587 537.75,587 c -14.25,0 -92.75,1.25 -98.25,-0.5 -5.5,-1.75 -6.512,-7.75 -6.512,-15 0,-7.25 0.148,-13.5 -0.045,-19.25 -0.193,-5.75 -0.943,-11.285 17.807,-11.768 18.75,-0.482 87,0.018 87,0.018 z"
         id="path3352" />
      <path
         style="fill:#c6a700;fill-opacity:1"
         inkscape:connector-curvature="0"
         d="m 755,476.25 c 0,0 -1,21.25 0,24.5 1,3.25 9.25,7.5 11.75,1.75 2.5,-5.75 1,-26.25 1,-26.25 l 0.446,-1.25 c 0,0 16.804,0 20.054,0 3.25,0 8,-0.75 8.25,-5.75 0.25,-5 -4.5,-6.5 -17.5,-6.5 -13,0 -10.75,0 -10.75,0 0,0 -0.25,-14.25 -0.25,-17.75 0,-3.5 -0.5,-10 -2.25,-10.75 -1.75,-0.75 -7.25,-1.75 -9.75,2.25 -2.5,4 0,25.75 0,25.75 0,0 -8,0.25 -16.25,0 -8.25,-0.25 -14.25,0.897 -15,7.198 -0.75,6.302 10.75,6.552 14.5,6.552 3.75,0 15.75,0.25 15.75,0.25 z"
         id="path3354" />
      <circle
         style="fill:#c6a700;fill-opacity:1"
         cx="874.875"
         cy="456.375"
         r="17.875"
         id="circle3356" />
      <circle
         style="fill:#c6a700;fill-opacity:1"
         cx="1009.875"
         cy="424.625"
         r="18.125"
         id="circle3358" />
      <circle
         style="fill:#c6a700;fill-opacity:1"
         cx="929.875"
         cy="372.875"
         r="18.375"
         id="circle3360" />
      <circle
         style="fill:#c6a700;fill-opacity:1"
         cx="1083.875"
         cy="372.625"
         r="19.125"
         id="circle3362" />
      <circle
         style="fill:#c6a700;fill-opacity:1"
         cx="1009.375"
         cy="568.375"
         r="18.625"
         id="circle3364" />
      <circle
         style="fill:#c6a700;fill-opacity:1"
         cx="1136.25"
         cy="454.5"
         r="18"
         id="circle3366" />
      <g
         style="fill:#c6a700;fill-opacity:1"
         id="g3368">
        <line
           style="fill:#c6a700;fill-opacity:1"
           x1="1000.5"
           y1="562.25"
           x2="880.25"
           y2="465"
           id="line3370" />
        <g
           style="fill:#c6a700;fill-opacity:1"
           id="g3372">
          <path
             style="fill:#c6a700;fill-opacity:1"
             inkscape:connector-curvature="0"
             d="m 1002.268,560.482 c -38.006,-30.737 -76.012,-61.473 -114.018,-92.21 -2.077,-1.68 -4.155,-3.36 -6.232,-5.04 -2.482,-2.008 -6.044,1.507 -3.536,3.536 38.006,30.737 76.012,61.473 114.018,92.21 2.077,1.68 4.155,3.36 6.232,5.04 2.483,2.007 6.044,-1.508 3.536,-3.536 l 0,0 z"
             id="path3374" />
        </g>
      </g>
      <g
         style="fill:#c6a700;fill-opacity:1"
         id="g3376">
        <line
           style="fill:#c6a700;fill-opacity:1"
           x1="1009.375"
           y1="435.5"
           x2="1007.5"
           y2="559.25"
           id="line3378" />
        <g
           style="fill:#c6a700;fill-opacity:1"
           id="g3380">
          <path
             style="fill:#c6a700;fill-opacity:1"
             inkscape:connector-curvature="0"
             d="m 1006.875,435.5 c -0.625,41.25 -1.25,82.5 -1.875,123.75 -0.049,3.226 4.951,3.221 5,0 0.625,-41.25 1.25,-82.5 1.875,-123.75 0.049,-3.226 -4.951,-3.221 -5,0 l 0,0 z"
             id="path3382" />
        </g>
      </g>
      <g
         style="fill:#c6a700;fill-opacity:1"
         id="g3384">
        <line
           style="fill:#c6a700;fill-opacity:1"
           x1="1133.75"
           y1="460.5"
           x2="1018.5"
           y2="562.25"
           id="line3386" />
        <g
           style="fill:#c6a700;fill-opacity:1"
           id="g3388">
          <path
             style="fill:#c6a700;fill-opacity:1"
             inkscape:connector-curvature="0"
             d="m 1131.982,458.732 c -36.527,32.248 -73.053,64.496 -109.58,96.744 -1.89,1.669 -3.78,3.337 -5.67,5.006 -2.422,2.138 1.128,5.661 3.536,3.536 36.527,-32.248 73.054,-64.496 109.58,-96.744 1.89,-1.669 3.78,-3.337 5.67,-5.006 2.421,-2.138 -1.129,-5.661 -3.536,-3.536 l 0,0 z"
             id="path3390" />
        </g>
      </g>
      <g
         style="fill:#c6a700;fill-opacity:1"
         id="g3392">
        <line
           style="fill:#c6a700;fill-opacity:1"
           x1="932"
           y1="375.5"
           x2="1000.5"
           y2="424.625"
           id="line3394" />
        <g
           style="fill:#c6a700;fill-opacity:1"
           id="g3396">
          <path
             style="fill:#c6a700;fill-opacity:1"
             inkscape:connector-curvature="0"
             d="m 930.738,377.659 c 22.833,16.375 45.667,32.75 68.5,49.125 2.626,1.883 5.118,-2.456 2.524,-4.317 -22.833,-16.375 -45.667,-32.75 -68.5,-49.125 -2.626,-1.884 -5.119,2.456 -2.524,4.317 l 0,0 z"
             id="path3398" />
        </g>
      </g>
      <g
         style="fill:#c6a700;fill-opacity:1"
         id="g3400">
        <line
           style="fill:#c6a700;fill-opacity:1"
           x1="924"
           y1="379.25"
           x2="876.5"
           y2="451.75"
           id="line3402" />
        <g
           style="fill:#c6a700;fill-opacity:1"
           id="g3404">
          <path
             style="fill:#c6a700;fill-opacity:1"
             inkscape:connector-curvature="0"
             d="m 921.841,377.988 c -15.833,24.167 -31.667,48.333 -47.5,72.5 -1.773,2.706 2.558,5.208 4.317,2.524 15.833,-24.167 31.667,-48.333 47.5,-72.5 1.773,-2.706 -2.558,-5.208 -4.317,-2.524 l 0,0 z"
             id="path3406" />
        </g>
      </g>
      <g
         style="fill:#c6a700;fill-opacity:1"
         id="g3408">
        <line
           style="fill:#c6a700;fill-opacity:1"
           x1="872"
           y1="454.5"
           x2="1004.75"
           y2="426.75"
           id="line3410" />
        <g
           style="fill:#c6a700;fill-opacity:1"
           id="g3412">
          <path
             style="fill:#c6a700;fill-opacity:1"
             inkscape:connector-curvature="0"
             d="m 872.665,456.911 c 44.2,-9.239 88.399,-18.479 132.599,-27.718 0.05,-0.011 0.101,-0.021 0.151,-0.032 3.155,-0.66 1.817,-5.479 -1.329,-4.821 -44.2,9.239 -88.399,18.479 -132.599,27.718 -0.05,0.011 -0.101,0.021 -0.151,0.032 -3.156,0.659 -1.817,5.478 1.329,4.821 l 0,0 z"
             id="path3414" />
        </g>
      </g>
      <g
         style="fill:#c6a700;fill-opacity:1"
         id="g3416">
        <line
           style="fill:#c6a700;fill-opacity:1"
           x1="1015.25"
           y1="420.94501"
           x2="1071.25"
           y2="377.5"
           id="line3418" />
        <g
           style="fill:#c6a700;fill-opacity:1"
           id="g3420">
          <path
             style="fill:#c6a700;fill-opacity:1"
             inkscape:connector-curvature="0"
             d="m 1017.018,422.713 c 18.667,-14.482 37.333,-28.963 56,-43.445 2.545,-1.974 -1.021,-5.486 -3.536,-3.536 -18.667,14.482 -37.333,28.963 -56,43.445 -2.545,1.974 1.022,5.486 3.536,3.536 l 0,0 z"
             id="path3422" />
        </g>
      </g>
      <g
         style="fill:#c6a700;fill-opacity:1"
         id="g3424">
        <line
           style="fill:#c6a700;fill-opacity:1"
           x1="1087.25"
           y1="380.75"
           x2="1133.75"
           y2="448.25"
           id="line3426" />
        <g
           style="fill:#c6a700;fill-opacity:1"
           id="g3428">
          <path
             style="fill:#c6a700;fill-opacity:1"
             inkscape:connector-curvature="0"
             d="m 1085.091,382.012 c 15.5,22.5 31,45 46.5,67.5 1.816,2.636 6.152,0.139 4.317,-2.524 -15.5,-22.5 -31,-45 -46.5,-67.5 -1.815,-2.636 -6.151,-0.139 -4.317,2.524 l 0,0 z"
             id="path3430" />
        </g>
      </g>
    </g>
  </g>
</svg>
