<?xml version="1.0" encoding="UTF-8" standalone="no"?>
<!-- Created with Inkscape (http://www.inkscape.org/) -->

<svg
   xmlns:dc="http://purl.org/dc/elements/1.1/"
   xmlns:cc="http://creativecommons.org/ns#"
   xmlns:rdf="http://www.w3.org/1999/02/22-rdf-syntax-ns#"
   xmlns:svg="http://www.w3.org/2000/svg"
   xmlns="http://www.w3.org/2000/svg"
   xmlns:sodipodi="http://sodipodi.sourceforge.net/DTD/sodipodi-0.dtd"
   xmlns:inkscape="http://www.inkscape.org/namespaces/inkscape"
   width="227.17456"
   height="226.76352"
   viewBox="0 0 227.17456 226.76351"
   id="svg2"
   version="1.1"
   inkscape:version="0.91 r13725"
   sodipodi:docname="gpn-square-yellow-dark.svg"
   inkscape:export-filename="C:\Users\adele\Documents\GitHub\testcbrgpn.github.io\static\img\favicon256-yellow-dark.png"
   inkscape:export-xdpi="97.312286"
   inkscape:export-ydpi="97.312286">
  <defs
     id="defs4" />
  <sodipodi:namedview
     id="base"
     pagecolor="#ffffff"
     bordercolor="#666666"
     borderopacity="1.0"
     inkscape:pageopacity="0.0"
     inkscape:pageshadow="2"
     inkscape:zoom="1.979899"
     inkscape:cx="130.38263"
     inkscape:cy="117.50604"
     inkscape:document-units="px"
     inkscape:current-layer="layer1"
     showgrid="false"
     inkscape:window-width="1280"
     inkscape:window-height="790"
     inkscape:window-x="-8"
     inkscape:window-y="-8"
     inkscape:window-maximized="1"
     fit-margin-top="0"
     fit-margin-left="0"
     fit-margin-right="0"
     fit-margin-bottom="0"
     units="px" />
  <metadata
     id="metadata7">
    <rdf:RDF>
      <cc:Work
         rdf:about="">
        <dc:format>image/svg+xml</dc:format>
        <dc:type
           rdf:resource="http://purl.org/dc/dcmitype/StillImage" />
        <dc:title></dc:title>
      </cc:Work>
    </rdf:RDF>
  </metadata>
  <g
     inkscape:label="Layer 1"
     inkscape:groupmode="layer"
     id="layer1"
     transform="translate(-216.03958,-448.358)">
    <g
       style="display:none;fill:#800000"
       id="Layer_2"
       display="none"
       transform="translate(-216.84397,87.688986)">
      <rect
         style="display:inline;fill:#800000"
         y="0"
         x="0"
         display="inline"
         width="1190.55"
         height="841.89001"
         id="rect3339" />
      <path
         style="display:inline;fill:#800000"
         inkscape:connector-curvature="0"
         display="inline"
         d="m 474,540.5 c 0,0 150.5,0 161.25,0 10.75,0 23,-0.75 23.5,7.5 0.5,8.25 -0.5,19 0,26.25 0.5,7.25 -1,14 -7.25,14 -6.25,0 -168,0 -168,0 0,0 -39.5,-0.25 -45,-1.5 -5.5,-1.25 -5.512,-7.5 -5.512,-15.25 0,-7.75 -0.488,-19.75 1.762,-25 2.25,-5.25 5,-6.018 10.75,-6.018 5.75,0 28.5,0.018 28.5,0.018 z"
         id="path3341" />
    </g>
    <path
       id="path3344"
       d="m 263.82883,515.81944 c 0,0 -3.62336,-1.4612 -6.77927,-4.96779 -3.15595,-3.50658 -4.03259,-9.99379 -3.15595,-13.85103 0.87665,-3.85726 4.55857,-8.18192 8.64971,-10.28588 4.09114,-2.10395 11.45462,-1.75329 15.31187,1.05198 3.85726,2.80528 6.77965,7.12994 7.13031,10.51976 0.35065,3.38983 -0.23389,7.83128 -2.45461,10.9872 -2.22109,3.15595 -5.026,4.90922 -6.31187,5.43521 -1.28587,0.52599 -1.87042,1.11055 -1.87042,1.11055 l 1.7533,2.45462 c 0,0 12.62408,-6.42863 14.8448,-7.24708 2.22072,-0.81844 5.72731,-2.22072 6.7793,0.58455 1.05196,2.80526 -3.62336,5.9612 -8.18195,8.41581 -4.55855,2.4546 -10.28622,5.49341 -10.28622,5.49341 l 14.72768,29.92211 -11.92241,0.58454 c 0,0 0.35066,9.81776 0,13.32434 -0.35065,3.50658 -0.9352,8.76927 -4.32467,9.00176 -3.38949,0.23249 -5.14277,-5.72871 -5.37666,-7.83266 -0.23389,-2.10396 -0.81809,-14.84481 -0.81809,-14.84481 l -4.32502,0 c 0,0 -0.46742,10.6369 -1.05198,13.90959 -0.5842,3.2727 -1.87007,8.89902 -4.79211,8.77455 -2.92203,-0.12484 -4.90922,-4.21597 -4.90922,-6.20316 0,-1.98719 -0.23389,-16.24709 -0.23389,-16.24709 l -11.80565,0 14.72769,-30.74121 c 0,0 -9.23391,-4.55717 -12.7405,-6.66111 -3.50659,-2.10397 -6.54575,-4.55857 -5.1431,-7.59775 1.40262,-3.03916 7.83126,1.16876 9.81845,1.9872 1.98717,0.81843 11.68851,5.9612 11.68851,5.9612 l 1.51975,-2.68851 -0.46778,-0.3503 z"
       inkscape:connector-curvature="0"
       style="fill:#c6a700;fill-opacity:1" />
    <path
       id="path3348"
       d="m 233.49103,594.02299 0,-121.666 193.667,-1.333 9,-10.333 c 0,0 -4.668,-9 -14.334,-10 -9.666,-1 -67.333,-2.333 -99.333,-2.333 -32,0 -86,0.666 -92,4.333 -6,3.667 -14.333,13.333 -14.333,34 0,20.667 -0.333,96.999 2.333,107.333 2.666,10.334 12.667,21 48,21 35.333,0 122.333,0 146,0 23.667,0 27.999,-19 27.999,-28 0,-9 1.002,-51.999 1.668,-69.666 0.666,-17.667 2,-33.667 0,-42 -2,-8.333 -3,-12 -3,-12 l -11.334,13.333 -0.666,1.667 c 0,0 0,1.818 0,4.839 0,9.315 0,30.065 0,44.161 0,18.666 0,40.667 0,51 0,10.333 -1,18 -1,18 l -192.667,-2.335 z"
       inkscape:connector-curvature="0"
       style="fill:#c6a700;fill-opacity:1" />
    <path
       id="path3350"
       d="m 427.32303,473.02899 c 0,-2.006 -6.083,-6.083 -6.083,-6.083 l 9.333,-9.333 3.451,0 c 0,0 6.326,2.603 7.756,16.174 1.43,13.572 -14.622,10.575 -14.622,10.575 l 0.165,-11.333 z"
       inkscape:connector-curvature="0"
       style="fill:#c6a700;fill-opacity:1" />
    <path
       id="path3352"
       d="m 320.90603,628.18899 c 0,0 101.75,0.25 108.5,0.25 6.75,0 12,-0.5 12.25,14 0.25,14.5 2,28.75 -3.75,31 -5.75,2.25 -102.75,1.25 -117,1.25 -14.25,0 -92.75,1.25 -98.25,-0.5 -5.5,-1.75 -6.512,-7.75 -6.512,-15 0,-7.25 0.148,-13.5 -0.045,-19.25 -0.193,-5.75 -0.943,-11.285 17.807,-11.768 18.75,-0.482 87,0.018 87,0.018 z"
       inkscape:connector-curvature="0"
       style="fill:#c6a700;fill-opacity:1" />
    <circle
       id="circle3356"
       r="7.11938"
       cy="526.336"
       cx="309.41824"
       style="fill:#c6a700;fill-opacity:1" />
    <circle
       id="circle3358"
       r="7.2189517"
       cy="513.69037"
       cx="363.18698"
       style="fill:#c6a700;fill-opacity:1" />
    <circle
       id="circle3360"
       r="7.3185234"
       cy="493.07901"
       cx="331.32404"
       style="fill:#c6a700;fill-opacity:1" />
    <circle
       id="circle3362"
       r="7.6172385"
       cy="492.97943"
       cx="392.66022"
       style="fill:#c6a700;fill-opacity:1" />
    <circle
       id="circle3364"
       r="7.4180951"
       cy="570.94409"
       cx="362.98785"
       style="fill:#c6a700;fill-opacity:1" />
    <circle
       id="circle3366"
       r="7.1691656"
       cy="525.58917"
       cx="413.52051"
       style="fill:#c6a700;fill-opacity:1" />
    <g
       id="g3368"
       style="fill:#c6a700;fill-opacity:1"
       transform="matrix(0.39828699,0,0,0.39828699,-39.033072,344.56775)">
      <line
         id="line3370"
         y2="465"
         x2="880.25"
         y1="562.25"
         x1="1000.5"
         style="fill:#c6a700;fill-opacity:1" />
      <g
         id="g3372"
         style="fill:#c6a700;fill-opacity:1">
        <path
           id="path3374"
           d="m 1002.268,560.482 c -38.006,-30.737 -76.012,-61.473 -114.018,-92.21 -2.077,-1.68 -4.155,-3.36 -6.232,-5.04 -2.482,-2.008 -6.044,1.507 -3.536,3.536 38.006,30.737 76.012,61.473 114.018,92.21 2.077,1.68 4.155,3.36 6.232,5.04 2.483,2.007 6.044,-1.508 3.536,-3.536 l 0,0 z"
           inkscape:connector-curvature="0"
           style="fill:#c6a700;fill-opacity:1" />
      </g>
    </g>
    <g
       id="g3376"
       style="fill:#c6a700;fill-opacity:1"
       transform="matrix(0.39828699,0,0,0.39828699,-39.033072,344.56775)">
      <line
         id="line3378"
         y2="559.25"
         x2="1007.5"
         y1="435.5"
         x1="1009.375"
         style="fill:#c6a700;fill-opacity:1" />
      <g
         id="g3380"
         style="fill:#c6a700;fill-opacity:1">
        <path
           id="path3382"
           d="m 1006.875,435.5 c -0.625,41.25 -1.25,82.5 -1.875,123.75 -0.049,3.226 4.951,3.221 5,0 0.625,-41.25 1.25,-82.5 1.875,-123.75 0.049,-3.226 -4.951,-3.221 -5,0 l 0,0 z"
           inkscape:connector-curvature="0"
           style="fill:#c6a700;fill-opacity:1" />
      </g>
    </g>
    <g
       id="g3384"
       style="fill:#c6a700;fill-opacity:1"
       transform="matrix(0.39828699,0,0,0.39828699,-39.033072,344.56775)">
      <line
         id="line3386"
         y2="562.25"
         x2="1018.5"
         y1="460.5"
         x1="1133.75"
         style="fill:#c6a700;fill-opacity:1" />
      <g
         id="g3388"
         style="fill:#c6a700;fill-opacity:1">
        <path
           id="path3390"
           d="m 1131.982,458.732 c -36.527,32.248 -73.053,64.496 -109.58,96.744 -1.89,1.669 -3.78,3.337 -5.67,5.006 -2.422,2.138 1.128,5.661 3.536,3.536 36.527,-32.248 73.054,-64.496 109.58,-96.744 1.89,-1.669 3.78,-3.337 5.67,-5.006 2.421,-2.138 -1.129,-5.661 -3.536,-3.536 l 0,0 z"
           inkscape:connector-curvature="0"
           style="fill:#c6a700;fill-opacity:1" />
      </g>
    </g>
    <g
       id="g3392"
       style="fill:#c6a700;fill-opacity:1"
       transform="matrix(0.39828699,0,0,0.39828699,-39.033072,344.56775)">
      <line
         id="line3394"
         y2="424.625"
         x2="1000.5"
         y1="375.5"
         x1="932"
         style="fill:#c6a700;fill-opacity:1" />
      <g
         id="g3396"
         style="fill:#c6a700;fill-opacity:1">
        <path
           id="path3398"
           d="m 930.738,377.659 c 22.833,16.375 45.667,32.75 68.5,49.125 2.626,1.883 5.118,-2.456 2.524,-4.317 -22.833,-16.375 -45.667,-32.75 -68.5,-49.125 -2.626,-1.884 -5.119,2.456 -2.524,4.317 l 0,0 z"
           inkscape:connector-curvature="0"
           style="fill:#c6a700;fill-opacity:1" />
      </g>
    </g>
    <g
       id="g3400"
       style="fill:#c6a700;fill-opacity:1"
       transform="matrix(0.39828699,0,0,0.39828699,-39.033072,344.56775)">
      <line
         id="line3402"
         y2="451.75"
         x2="876.5"
         y1="379.25"
         x1="924"
         style="fill:#c6a700;fill-opacity:1" />
      <g
         id="g3404"
         style="fill:#c6a700;fill-opacity:1">
        <path
           id="path3406"
           d="m 921.841,377.988 c -15.833,24.167 -31.667,48.333 -47.5,72.5 -1.773,2.706 2.558,5.208 4.317,2.524 15.833,-24.167 31.667,-48.333 47.5,-72.5 1.773,-2.706 -2.558,-5.208 -4.317,-2.524 l 0,0 z"
           inkscape:connector-curvature="0"
           style="fill:#c6a700;fill-opacity:1" />
      </g>
    </g>
    <g
       id="g3408"
       style="fill:#c6a700;fill-opacity:1"
       transform="matrix(0.39828699,0,0,0.39828699,-39.033072,344.56775)">
      <line
         id="line3410"
         y2="426.75"
         x2="1004.75"
         y1="454.5"
         x1="872"
         style="fill:#c6a700;fill-opacity:1" />
      <g
         id="g3412"
         style="fill:#c6a700;fill-opacity:1">
        <path
           id="path3414"
           d="m 872.665,456.911 c 44.2,-9.239 88.399,-18.479 132.599,-27.718 0.05,-0.011 0.101,-0.021 0.151,-0.032 3.155,-0.66 1.817,-5.479 -1.329,-4.821 -44.2,9.239 -88.399,18.479 -132.599,27.718 -0.05,0.011 -0.101,0.021 -0.151,0.032 -3.156,0.659 -1.817,5.478 1.329,4.821 l 0,0 z"
           inkscape:connector-curvature="0"
           style="fill:#c6a700;fill-opacity:1" />
      </g>
    </g>
    <g
       id="g3416"
       style="fill:#c6a700;fill-opacity:1"
       transform="matrix(0.39828699,0,0,0.39828699,-39.033072,344.56775)">
      <line
         id="line3418"
         y2="377.5"
         x2="1071.25"
         y1="420.94501"
         x1="1015.25"
         style="fill:#c6a700;fill-opacity:1" />
      <g
         id="g3420"
         style="fill:#c6a700;fill-opacity:1">
        <path
           id="path3422"
           d="m 1017.018,422.713 c 18.667,-14.482 37.333,-28.963 56,-43.445 2.545,-1.974 -1.021,-5.486 -3.536,-3.536 -18.667,14.482 -37.333,28.963 -56,43.445 -2.545,1.974 1.022,5.486 3.536,3.536 l 0,0 z"
           inkscape:connector-curvature="0"
           style="fill:#c6a700;fill-opacity:1" />
      </g>
    </g>
    <g
       id="g3424"
       style="fill:#c6a700;fill-opacity:1"
       transform="matrix(0.39828699,0,0,0.39828699,-39.033072,344.56775)">
      <line
         id="line3426"
         y2="448.25"
         x2="1133.75"
         y1="380.75"
         x1="1087.25"
         style="fill:#c6a700;fill-opacity:1" />
      <g
         id="g3428"
         style="fill:#c6a700;fill-opacity:1">
        <path
           id="path3430"
           d="m 1085.091,382.012 c 15.5,22.5 31,45 46.5,67.5 1.816,2.636 6.152,0.139 4.317,-2.524 -15.5,-22.5 -31,-45 -46.5,-67.5 -1.815,-2.636 -6.151,-0.139 -4.317,2.524 l 0,0 z"
           inkscape:connector-curvature="0"
           style="fill:#c6a700;fill-opacity:1" />
      </g>
    </g>
    <g
       style="fill:#c6a700;fill-opacity:1"
       id="Text"
       transform="translate(-216.84397,87.688986)" />
  </g>
</svg>
