<?xml version="1.0" encoding="UTF-8" standalone="no"?>
<!-- Created with Inkscape (http://www.inkscape.org/) -->

<svg
   xmlns:dc="http://purl.org/dc/elements/1.1/"
   xmlns:cc="http://creativecommons.org/ns#"
   xmlns:rdf="http://www.w3.org/1999/02/22-rdf-syntax-ns#"
   xmlns:svg="http://www.w3.org/2000/svg"
   xmlns="http://www.w3.org/2000/svg"
   xmlns:sodipodi="http://sodipodi.sourceforge.net/DTD/sodipodi-0.dtd"
   xmlns:inkscape="http://www.inkscape.org/namespaces/inkscape"
   width="312.12015mm"
   height="39.834469mm"
   viewBox="0 0 1105.9375 141.14576"
   id="svg2"
   version="1.1"
   inkscape:version="0.91 r13725"
   sodipodi:docname="gpn_garland_sm.svg"
   inkscape:export-filename="C:\Users\adele\Documents\GitHub\testcbrgpn.github.io\static\img\gpn_garland_sm.png"
   inkscape:export-xdpi="90"
   inkscape:export-ydpi="90">
  <defs
     id="defs4" />
  <sodipodi:namedview
     id="base"
     pagecolor="#ffffff"
     bordercolor="#666666"
     borderopacity="1.0"
     inkscape:pageopacity="0.0"
     inkscape:pageshadow="2"
     inkscape:zoom="0.49497475"
     inkscape:cx="354.67558"
     inkscape:cy="320.13814"
     inkscape:document-units="px"
     inkscape:current-layer="layer1"
     showgrid="false"
     inkscape:window-width="1280"
     inkscape:window-height="790"
     inkscape:window-x="-8"
     inkscape:window-y="-8"
     inkscape:window-maximized="1"
     fit-margin-top="0"
     fit-margin-left="0"
     fit-margin-right="0"
     fit-margin-bottom="0" />
  <metadata
     id="metadata7">
    <rdf:RDF>
      <cc:Work
         rdf:about="">
        <dc:format>image/svg+xml</dc:format>
        <dc:type
           rdf:resource="http://purl.org/dc/dcmitype/StillImage" />
        <dc:title></dc:title>
      </cc:Work>
    </rdf:RDF>
  </metadata>
  <g
     inkscape:label="Layer 1"
     inkscape:groupmode="layer"
     id="layer1"
     transform="translate(174.36502,-265.98462)">
    <path
       inkscape:connector-curvature="0"
       style="fill:#5c6359;fill-opacity:1;fill-rule:nonzero;stroke:none"
       d="m 931.57248,268.42447 c -358.43261,126.42879 -747.50489,126.42879 -1105.9375,0 0.26856,-0.81497 0.53711,-1.62488 0.81055,-2.43985 357.90527,126.2477 746.41113,126.2477 1104.32129,0 0.26855,0.81497 0.53711,1.62488 0.80566,2.43985"
       id="path3513" />
    <path
       inkscape:connector-curvature="0"
       style="fill:#3949ab;fill-opacity:1;fill-rule:nonzero;stroke:none"
       d="m -121.8738,286.17602 c -9.796,12.32484 -19.86061,24.50599 -30.18884,36.53619 -1.10631,-15.81673 -1.9177,-31.60165 -2.43438,-47.34254 -0.0172,0.007 9.01617,7.3328 15.03377,9.29947 6.1843,2.07205 17.59893,1.52413 17.58945,1.50688"
       id="path3515" />
    <path
       inkscape:connector-curvature="0"
       style="fill:#fdd835;fill-opacity:1;fill-rule:nonzero;stroke:none"
       d="m -47.301942,308.06287 c -9.187429,12.77633 -18.646295,25.42384 -28.378921,37.93516 -1.831504,-15.74379 -3.367904,-31.46584 -4.606838,-47.1612 -0.01725,0.01 9.316126,6.8888 15.398799,8.56473 6.254487,1.77386 17.598896,0.67859 17.58696,0.66131"
       id="path3517" />
    <path
       inkscape:connector-curvature="0"
       style="fill:#ffff6b;fill-opacity:1;fill-rule:nonzero;stroke:none"
       d="m 30.547517,327.09552 c -8.636175,13.15122 -17.548355,26.18455 -26.7339423,39.09271 -2.4704379,-15.65116 -4.64318413,-31.29143 -6.5207763,-46.91599 -0.017333,0.0119 9.5635039,6.48575 15.6958126,7.90367 6.306336,1.50691 17.568378,-0.0655 17.558906,-0.0804"
       id="path3519" />
    <path
       inkscape:connector-curvature="0"
       style="fill:#00227b;fill-opacity:1;fill-rule:nonzero;stroke:none"
       d="m 107.15333,341.39674 c -8.000844,13.54129 -16.282939,26.97945 -24.843613,40.30232 -3.18617,-15.5139 -6.074302,-31.03424 -8.667038,-46.55128 -0.0173,0.0119 9.831306,6.02668 16.011761,7.155 6.354741,1.20741 17.51082,-0.89115 17.49889,-0.90603"
       id="path3521" />
    <path
       inkscape:connector-curvature="0"
       style="fill:#fdd835;fill-opacity:1;fill-rule:nonzero;stroke:none"
       d="m 184.21119,351.89391 c -7.09472,14.03564 -14.47509,27.98584 -22.14111,41.84082 -4.17969,-15.27344 -8.06641,-30.57129 -11.65528,-45.88379 -0.0147,0.0122 10.18555,5.36865 16.41602,6.09131 6.41113,0.78857 17.39258,-2.03369 17.38037,-2.04834"
       id="path3523" />
    <path
       inkscape:connector-curvature="0"
       style="fill:#c6a700;fill-opacity:1;fill-rule:nonzero;stroke:none"
       d="m 262.78376,358.98077 c -6.44043,14.3457 -13.16895,28.61817 -20.18799,42.81006 -4.86817,-15.06592 -9.44092,-30.16846 -13.72071,-45.30029 -0.0147,0.0122 10.40772,4.89502 16.65772,5.33203 6.4331,0.49317 17.26318,-2.82715 17.25098,-2.8418"
       id="path3525" />
    <path
       inkscape:connector-curvature="0"
       style="fill:#3949ab;fill-opacity:1;fill-rule:nonzero;stroke:none"
       d="m 340.77204,362.57818 c -5.77637,14.62403 -11.84326,29.18945 -18.20068,43.68653 -5.54932,-14.82667 -10.80567,-29.7046 -15.76661,-44.62403 -0.0147,0.0146 10.6128,4.41406 16.87256,4.56299 6.44287,0.20264 17.10938,-3.61328 17.09473,-3.62549"
       id="path3527" />
    <path
       inkscape:connector-curvature="0"
       style="fill:#c6a700;fill-opacity:1;fill-rule:nonzero;stroke:none"
       d="m 418.55783,362.6335 c -5.10254,14.87305 -10.50049,29.6997 -16.18652,44.4751 -6.22071,-14.55811 -12.15088,-29.17969 -17.78809,-43.85742 -0.0146,0.0122 10.80078,3.92334 17.06055,3.78662 6.44531,-0.0952 16.92627,-4.3921 16.91406,-4.4043"
       id="path3529" />
    <path
       inkscape:connector-curvature="0"
       style="fill:#ffff6b;fill-opacity:1;fill-rule:nonzero;stroke:none"
       d="m 496.51315,358.98683 c -4.41894,15.09033 -9.13574,30.14892 -14.14551,45.16845 -6.88232,-14.25781 -13.47411,-28.59375 -19.77783,-43.00049 -0.0146,0.0146 10.96924,3.42774 17.21924,3.00537 6.43799,-0.38818 16.71875,-5.16113 16.7041,-5.17333"
       id="path3531" />
    <path
       inkscape:connector-curvature="0"
       style="fill:#00227b;fill-opacity:1;fill-rule:nonzero;stroke:none"
       d="m 574.5257,351.59814 c -3.73047,15.27832 -7.75878,30.53711 -12.08252,45.76905 -7.53418,-13.92578 -14.78027,-27.94678 -21.74072,-42.0459 -0.0122,0.0146 11.12549,2.91992 17.35596,2.21191 6.42089,-0.68359 16.48193,-5.92529 16.46728,-5.93506"
       id="path3533" />
    <path
       inkscape:connector-curvature="0"
       style="fill:#3949ab;fill-opacity:1;fill-rule:nonzero;stroke:none"
       d="m 651.58342,340.70093 c -3.03711,15.43457 -6.37207,30.86426 -10.00244,46.2793 -8.16895,-13.56446 -16.05958,-27.23633 -23.66456,-41.00341 -0.0122,0.0171 11.25977,2.40722 17.46094,1.41113 6.39161,-0.97901 16.22071,-6.67725 16.20606,-6.68702"
       id="path3535" />
    <path
       inkscape:connector-curvature="0"
       style="fill:#fdd835;fill-opacity:1;fill-rule:nonzero;stroke:none"
       d="m 728.69578,326.08326 c -2.33643,15.56152 -4.97071,31.13037 -7.9004,46.69921 -8.79882,-13.17382 -17.31689,-26.46728 -25.5542,-39.86816 -0.0146,0.017 11.37696,1.88477 17.53907,0.60303 6.3501,-1.27442 15.93261,-7.42188 15.91553,-7.43408"
       id="path3537" />
    <path
       inkscape:connector-curvature="0"
       style="fill:#c6a700;fill-opacity:1;fill-rule:nonzero;stroke:none"
       d="m 805.11179,307.22339 c -1.63575,15.65674 -3.56445,31.33546 -5.79101,47.02638 -9.40919,-12.75392 -18.54249,-25.63721 -27.39991,-38.64258 -0.0122,0.017 11.47461,1.35498 17.58789,-0.21484 6.30127,-1.56739 15.61768,-8.15918 15.60303,-8.16895"
       id="path3539" />
    <path
       inkscape:connector-curvature="0"
       style="fill:#ffff6b;fill-opacity:1;fill-rule:nonzero;stroke:none"
       d="m 881.08333,285.50908 c -0.93018,15.72021 -2.15088,31.47705 -3.66943,47.2583 -10.00733,-12.29981 -19.74122,-24.74365 -29.20655,-37.32422 -0.01,0.0195 11.56006,0.81544 17.61231,-1.03759 6.24023,-1.8628 15.27832,-8.88916 15.26367,-8.89649"
       id="path3541" />
    <path
       inkscape:connector-curvature="0"
       style="fill:#3949ab;fill-opacity:1;fill-rule:nonzero;stroke:none"
       d="m 883.55523,284.60104 c 9.93656,12.2118 20.14008,24.27684 30.60545,36.18792 0.92505,-15.82837 1.55548,-31.62155 1.89183,-47.36733 0.0172,0.007 -8.93159,7.43562 -14.92625,9.47111 -6.16019,2.14277 -17.58034,1.72566 -17.57103,1.7083"
       id="path3515-3" />
    <path
       inkscape:connector-curvature="0"
       style="fill:#fdd835;fill-opacity:1;fill-rule:nonzero;stroke:none"
       d="m 810.76402,306.15077 c 9.2445,12.73505 18.75999,25.34006 28.54858,37.80767 1.76088,-15.75183 3.22688,-31.48061 4.39548,-47.18136 0.0172,0.009 -9.28514,6.93046 -15.36025,8.63361 -6.24654,1.80187 -17.59566,0.75742 -17.58381,0.74008"
       id="path3517-7" />
    <path
       inkscape:connector-curvature="0"
       style="fill:#ffff6b;fill-opacity:1;fill-rule:nonzero;stroke:none"
       d="m 735.25478,324.64882 c 8.68709,13.11761 17.64982,26.11625 26.88548,38.98868 2.40964,-15.66063 4.5217,-31.30921 6.33867,-46.94093 0.0172,0.0118 -9.53828,6.52279 -15.66508,7.96451 -6.30039,1.53136 -17.56852,0.003 -17.55907,-0.0123"
       id="path3519-0" />
    <path
       inkscape:connector-curvature="0"
       style="fill:#00227b;fill-opacity:1;fill-rule:nonzero;stroke:none"
       d="m 657.88895,339.58015 c 7.95292,13.56949 16.18749,27.03683 24.70103,40.38987 3.24097,-15.50255 6.18392,-31.01258 8.83148,-46.52037 0.0173,0.0119 -9.85253,5.99192 -16.03694,7.09838 -6.35898,1.18495 -17.50755,-0.95303 -17.49557,-0.96787"
       id="path3521-1" />
    <path
       inkscape:connector-curvature="0"
       style="fill:#fdd835;fill-opacity:1;fill-rule:nonzero;stroke:none"
       d="m 579.76868,351.24341 c 7.2763,13.94237 14.83711,27.79559 22.68232,41.5499 3.9811,-15.3264 7.66892,-30.67341 11.05874,-46.0312 0.0149,0.0121 -10.11501,5.5004 -16.33557,6.30387 -6.40036,0.87171 -17.41751,-1.80777 -17.40549,-1.82257"
       id="path3523-1" />
    <path
       inkscape:connector-curvature="0"
       style="fill:#c6a700;fill-opacity:1;fill-rule:nonzero;stroke:none"
       d="m 502.33885,358.71827 c 6.68591,14.23296 13.6586,28.38773 20.92039,42.45697 4.60866,-15.14732 8.9213,-30.32619 12.94053,-45.5293 0.0149,0.0118 -10.32209,5.07308 -16.56367,5.61738 -6.42368,0.60362 -17.3092,-2.53019 -17.29725,-2.54505"
       id="path3525-8" />
    <path
       inkscape:connector-curvature="0"
       style="fill:#3949ab;fill-opacity:1;fill-rule:nonzero;stroke:none"
       d="m 423.58392,362.72624 c 5.77637,14.62403 11.84326,29.18945 18.20068,43.68653 5.54932,-14.82667 10.80567,-29.7046 15.76661,-44.62403 0.0147,0.0146 -10.6128,4.41406 -16.87256,4.56299 -6.44287,0.20264 -17.10938,-3.61328 -17.09473,-3.62549"
       id="path3527-7" />
    <path
       inkscape:connector-curvature="0"
       style="fill:#fdd835;fill-opacity:1;fill-rule:nonzero;stroke:none"
       d="m 345.04051,362.65528 c 5.10254,14.87305 10.50049,29.6997 16.18652,44.4751 6.22071,-14.55811 12.15088,-29.17969 17.78809,-43.85742 0.0146,0.0122 -10.80078,3.92334 -17.06055,3.78662 -6.44531,-0.0952 -16.92627,-4.3921 -16.91406,-4.4043"
       id="path3529-1" />
    <path
       inkscape:connector-curvature="0"
       style="fill:#ffff6b;fill-opacity:1;fill-rule:nonzero;stroke:none"
       d="m 267.59027,359.51368 c 4.41894,15.09033 9.13574,30.14892 14.14551,45.16845 6.88232,-14.25781 13.47411,-28.59375 19.77783,-43.00049 0.0146,0.0146 -10.96924,3.42774 -17.21924,3.00537 -6.43799,-0.38818 -16.71875,-5.16113 -16.7041,-5.17333"
       id="path3531-8" />
    <path
       inkscape:connector-curvature="0"
       style="fill:#00227b;fill-opacity:1;fill-rule:nonzero;stroke:none"
       d="m 189.32519,352.50381 c 3.73047,15.27832 7.75878,30.53711 12.08252,45.76905 7.53418,-13.92578 14.78027,-27.94678 21.74072,-42.0459 0.0122,0.0146 -11.12549,2.91992 -17.35596,2.21191 -6.42089,-0.68359 -16.48193,-5.92529 -16.46728,-5.93506"
       id="path3533-8" />
    <path
       inkscape:connector-curvature="0"
       style="fill:#3949ab;fill-opacity:1;fill-rule:nonzero;stroke:none"
       d="m 111.19418,341.87944 c 3.03711,15.43457 6.37207,30.86426 10.00244,46.2793 8.16895,-13.56446 16.05958,-27.23633 23.66456,-41.00341 0.0122,0.0171 -11.25977,2.40722 -17.46094,1.41113 -6.39161,-0.97901 -16.22071,-6.67725 -16.20606,-6.68702"
       id="path3535-4" />
    <path
       inkscape:connector-curvature="0"
       style="fill:#fdd835;fill-opacity:1;fill-rule:nonzero;stroke:none"
       d="m 35.952334,327.91849 c 2.3364,15.56152 4.9707,31.13037 7.9004,46.69921 8.7988,-13.17382 17.3169,-26.46728 25.5542,-39.86816 0.015,0.017 -11.377,1.88477 -17.5391,0.60303 -6.3501,-1.27442 -15.9326,-7.42188 -15.9155,-7.43408"
       id="path3537-4" />
    <path
       inkscape:connector-curvature="0"
       style="fill:#c6a700;fill-opacity:1;fill-rule:nonzero;stroke:none"
       d="m -41.008353,309.53831 c 1.6357,15.65674 3.5644,31.33546 5.791,47.02638 9.4092,-12.75392 18.5425,-25.63721 27.3998993,-38.64258 0.012,0.017 -11.4745993,1.35498 -17.5878993,-0.21484 -6.3013,-1.56739 -15.6177,-8.15918 -15.603,-8.16895"
       id="path3539-0" />
    <path
       inkscape:connector-curvature="0"
       style="fill:#ffff6b;fill-opacity:1;fill-rule:nonzero;stroke:none"
       d="m -117.65776,287.42505 c 0.64117,15.73465 1.57212,31.51126 2.80047,47.31775 10.23163,-12.11384 20.192544,-24.37671 29.887424,-36.78123 0.0096,0.0197 -11.573032,0.60288 -17.590254,-1.36105 -6.20491,-1.97716 -15.11237,-9.16841 -15.09764,-9.17547"
       id="path3541-5" />
    <path
       id="path3344-9-7"
       d="m 360.1729,376.18658 c 0,0 -0.91851,-0.39365 -1.70613,-1.30787 -0.7876,-0.91417 -0.97589,-2.57791 -0.73033,-3.55941 0.24545,-0.98152 1.211,-2.06701 2.26875,-2.58241 1.05785,-0.51535 2.93889,-0.38494 3.90969,0.35377 0.97086,0.73871 1.69421,1.86079 1.76514,2.72953 0.0709,0.8688 -0.10318,2.00132 -0.68846,2.79604 -0.58543,0.79474 -1.31245,1.22758 -1.64411,1.35495 -0.33178,0.12739 -0.48451,0.27365 -0.48451,0.27365 l 0.43476,0.63739 c 0,0 3.26377,-1.57404 3.83623,-1.77106 0.57239,-0.19699 1.47683,-0.53616 1.7303,0.187 0.25351,0.72318 -0.95953,1.50433 -2.13883,2.10679 -1.17929,0.60245 -2.66076,1.34783 -2.66076,1.34783 l 3.60053,7.73311 -3.05203,0.083 c 0,0 0.0353,2.51251 -0.0738,3.40726 -0.10916,0.89475 -0.28767,2.23728 -1.1557,2.27798 -0.86803,0.0406 -1.28338,-1.49341 -1.33154,-2.0327 -0.0482,-0.53931 -0.12704,-3.80061 -0.12704,-3.80061 l -1.10599,-0.0239 c 0,0 -0.17838,2.71744 -0.346,3.5511 -0.1675,0.83366 -0.52755,2.26525 -1.27395,2.21728 -0.74654,-0.0482 -1.23207,-1.10529 -1.22106,-1.61343 0.0106,-0.50815 0.0301,-4.15597 0.0301,-4.15597 l -3.0189,-0.0653 3.93627,-7.77956 c 0,0 -2.33606,-1.21645 -3.22111,-1.77387 -0.88503,-0.55742 -1.64862,-1.20193 -1.27316,-1.97133 0.37556,-0.7694 1.99616,0.34223 2.49978,0.56255 0.50361,0.22034 2.95597,1.58908 2.95597,1.58908 l 0.40344,-0.67909 -0.11767,-0.0922 z"
       inkscape:connector-curvature="0"
       style="fill:#c6a700;fill-opacity:1" />
    <path
       id="path3344-9-7-8"
       d="m 713.26073,342.85409 c 0,0 -0.98197,-0.18531 -1.94896,-0.90718 -0.96694,-0.72183 -1.5112,-2.30527 -1.48411,-3.31665 0.0267,-1.0114 0.73444,-2.28028 1.6554,-3.0126 0.92107,-0.73228 2.7857,-1.0125 3.89348,-0.50164 1.10785,0.51083 2.0571,1.44955 2.31457,2.28229 0.25742,0.8328 0.33284,1.97614 -0.0664,2.87878 -0.39934,0.9027 -1.01533,1.48277 -1.31153,1.67896 -0.29629,0.19624 -0.4137,0.37212 -0.4137,0.37212 l 0.56252,0.52806 c 0,0 2.84524,-2.24373 3.36142,-2.56009 0.51612,-0.31633 1.3256,-0.84337 1.72972,-0.19231 0.40416,0.65109 -0.61083,1.67648 -1.6316,2.52013 -1.02077,0.84362 -2.30557,1.89226 -2.30557,1.89226 l 5.19035,6.7694 -2.96156,0.74224 c 0,0 0.57879,2.4452 0.66612,3.34234 0.0872,0.89715 0.20382,2.24646 -0.63473,2.47425 -0.83862,0.22769 -1.57645,-1.1799 -1.7403,-1.69595 -0.1639,-0.51606 -0.9474,-3.68283 -0.9474,-3.68283 l -1.0849,0.21627 c 0,0 0.41457,2.69155 0.43154,3.54173 0.0171,0.85015 -0.0243,2.32574 -0.76333,2.44062 -0.73925,0.1147 -1.44226,-0.81212 -1.5416,-1.31058 -0.0998,-0.49838 -0.87098,-4.06379 -0.87098,-4.06379 l -2.96135,0.59029 2.15737,-8.44758 c 0,0 -2.54412,-0.68146 -3.52891,-1.0339 -0.98477,-0.35244 -1.86986,-0.81621 -1.67,-1.64869 0.19995,-0.83248 2.02289,-0.0984 2.56229,0.008 0.53938,0.10603 3.23003,0.91094 3.23003,0.91094 l 0.24674,-0.75036 -0.13486,-0.0645 z"
       inkscape:connector-curvature="0"
       style="fill:#c6a700;fill-opacity:1" />
    <path
       id="path3344-9-7-7"
       d="m -69.066949,316.38367 c 0,0 -0.787803,-0.61481 -1.316328,-1.69962 -0.528519,-1.08475 -0.286437,-2.74152 0.201235,-3.62799 0.487567,-0.88651 1.697945,-1.68997 2.852139,-1.91868 1.154278,-0.22863 2.939917,0.37702 3.690314,1.33881 0.750455,0.96181 1.163843,2.23122 1.010954,3.08934 -0.152932,0.85817 -0.609983,1.90888 -1.378528,2.52814 -0.768696,0.61923 -1.582041,0.85242 -1.935213,0.89103 -0.353294,0.0386 -0.538265,0.14109 -0.538265,0.14109 l 0.2579,0.72717 c 0,0 3.55721,-0.68998 4.160982,-0.73454 0.603697,-0.0446 1.564719,-0.14194 1.625452,0.62194 0.06077,0.76391 -1.311336,1.21 -2.605258,1.4919 -1.293911,0.28189 -2.916455,0.62497 -2.916455,0.62497 l 1.510094,8.3955 -2.972342,-0.69782 c 0,0 -0.606401,2.43849 -0.940002,3.27585 -0.33366,0.83737 -0.848533,2.09002 -1.698257,1.90809 -0.849699,-0.18204 -0.860247,-1.77125 -0.76933,-2.305 0.09088,-0.53378 0.846079,-3.70742 0.846079,-3.70742 l -1.063352,-0.30507 c 0,0 -0.865266,2.58218 -1.239879,3.34556 -0.374497,0.76341 -1.087617,2.05591 -1.797124,1.81924 -0.709585,-0.23693 -0.909579,-1.38288 -0.769388,-1.87141 0.139797,-0.48867 1.08862,-4.01097 1.08862,-4.01097 l -2.9025,-0.83278 5.789512,-6.519 c 0,0 -1.948751,-1.77181 -2.662449,-2.53644 -0.713679,-0.76463 -1.287727,-1.58252 -0.728524,-2.23077 0.5593,-0.64824 1.842954,0.83982 2.273765,1.18125 0.430797,0.34145 2.45318,2.29016 2.45318,2.29016 l 0.563235,-0.55379 -0.09028,-0.11916 z"
       inkscape:connector-curvature="0"
       style="fill:#c6a700;fill-opacity:1" />
    <path
       id="path3344-9-7-0"
       d="m 322.26108,376.02179 c 0,0 -0.90556,-0.42258 -1.66379,-1.36132 -0.75821,-0.93869 -0.89364,-2.60756 -0.61708,-3.58078 0.27646,-0.97324 1.27595,-2.02757 2.34951,-2.50916 1.07366,-0.48154 2.94962,-0.29154 3.89651,0.47759 0.94694,0.76913 1.63434,1.91358 1.67768,2.78413 0.0433,0.87062 -0.1666,1.99704 -0.77679,2.7728 -0.61034,0.77578 -1.35072,1.18534 -1.68625,1.30213 -0.33565,0.1168 -0.49295,0.25815 -0.49295,0.25815 l 0.41433,0.65085 c 0,0 3.31205,-1.46974 3.89047,-1.6485 0.57835,-0.17874 1.49309,-0.48905 1.7235,0.24178 0.23045,0.73086 -1.00676,1.47314 -2.20457,2.0379 -1.1978,0.56474 -2.70217,1.26277 -2.70217,1.26277 l 3.35347,7.8434 -3.05313,-0.0138 c 0,0 -0.0444,2.51236 -0.18182,3.4032 -0.13748,0.89084 -0.35848,2.22704 -1.22737,2.24019 -0.86888,0.0131 -1.23537,-1.53336 -1.2664,-2.07391 -0.0311,-0.54057 -0.006,-3.80273 -0.006,-3.80273 l -1.10468,-0.059 c 0,0 -0.26447,2.71041 -0.45844,3.53834 -0.19386,0.82793 -0.59913,2.24738 -1.34363,2.17576 -0.74464,-0.0718 -1.1964,-1.14381 -1.16928,-1.65134 0.0267,-0.50756 0.16189,-4.15293 0.16189,-4.15293 l -3.01531,-0.16101 4.18101,-7.65081 c 0,0 -2.2963,-1.28992 -3.16323,-1.87513 -0.8669,-0.58521 -1.60967,-1.25361 -1.21,-2.01072 0.39977,-0.7571 1.9843,0.40537 2.48068,0.64155 0.49637,0.2362 2.90409,1.68203 2.90409,1.68203 l 0.42477,-0.66596 -0.11468,-0.0959 z"
       inkscape:connector-curvature="0"
       style="fill:#00227b;fill-opacity:1" />
    <path
       id="path3344-9-7-0-7"
       d="m 635.83614,356.95104 c 0,0 -0.96809,-0.24778 -1.88689,-1.03007 -0.91876,-0.78224 -1.36055,-2.39727 -1.26878,-3.40484 0.0916,-1.00758 0.87887,-2.22861 1.84483,-2.90046 0.96605,-0.67184 2.84479,-0.83212 3.91761,-0.25141 1.07287,0.58069 1.9601,1.57824 2.16372,2.42575 0.2036,0.84759 0.20568,1.9934 -0.25048,2.86864 -0.45631,0.87529 -1.10816,1.41473 -1.41629,1.59157 -0.30825,0.17687 -0.43669,0.34488 -0.43669,0.34488 l 0.52756,0.56298 c 0,0 2.98304,-2.05702 3.51841,-2.3397 0.5353,-0.28263 1.37686,-0.75679 1.73848,-0.0812 0.36166,0.67561 -0.71689,1.63394 -1.78956,2.41052 -1.07267,0.77656 -2.42196,1.74082 -2.42196,1.74082 l 4.74643,7.08773 -3.00299,0.5512 c 0,0 0.42109,2.47721 0.45082,3.3781 0.0302,0.90088 0.06,2.25491 -0.79181,2.42856 -0.85146,0.1736 -1.49769,-1.27839 -1.62816,-1.80387 -0.13056,-0.52548 -0.70931,-3.73599 -0.70931,-3.73599 l -1.09653,0.14635 c 0,0 0.24145,2.71257 0.20401,3.56208 -0.0374,0.84951 -0.17308,2.31943 -0.91798,2.38676 -0.74507,0.0672 -1.38733,-0.90278 -1.45455,-1.40656 -0.0676,-0.50374 -0.6091,-4.11121 -0.6091,-4.11121 l -2.99306,0.39953 2.69365,-8.29217 c 0,0 -2.49528,-0.8429 -3.45549,-1.25765 -0.96019,-0.41476 -1.81379,-0.93423 -1.56106,-1.75221 0.25283,-0.81797 2.02505,0.0313 2.55654,0.17162 0.5315,0.14031 3.16512,1.11582 3.16512,1.11582 l 0.29425,-0.73303 -0.13045,-0.073 z"
       inkscape:connector-curvature="0"
       style="fill:#00227b;fill-opacity:1" />
    <path
       id="path3344-9-7-0-9"
       d="m -144.68727,293.80166 c 0,0 -0.77617,-0.62942 -1.28433,-1.72391 -0.50816,-1.09445 -0.23515,-2.7464 0.26899,-3.62359 0.50406,-0.87725 1.72924,-1.65796 2.8875,-1.86506 1.15835,-0.20702 2.93236,0.4319 3.66466,1.40755 0.73234,0.97567 1.12194,2.25258 0.95303,3.10769 -0.16895,0.85516 -0.64555,1.89715 -1.42553,2.50193 -0.78014,0.60476 -1.59769,0.82271 -1.95153,0.85471 -0.35394,0.032 -0.54081,0.13101 -0.54081,0.13101 l 0.24427,0.73185 c 0,0 3.56949,-0.62337 4.17398,-0.65664 0.60443,-0.0333 1.5671,-0.11267 1.61355,0.65221 0.0465,0.76492 -1.33372,1.18528 -2.63268,1.44296 -1.29895,0.25766 -2.92763,0.57035 -2.92763,0.57035 l 1.35293,8.42225 -2.95879,-0.75322 c 0,0 -0.65187,2.42673 -1.00106,3.25772 -0.34925,0.83098 -0.88744,2.0738 -1.73362,1.87601 -0.84616,-0.19783 -0.827,-1.78701 -0.72612,-2.31897 0.10082,-0.53199 0.91565,-3.69085 0.91565,-3.69085 l -1.05746,-0.32493 c 0,0 -0.91337,2.56555 -1.30218,3.3218 -0.3887,0.75628 -1.12585,2.03523 -1.83081,1.78533 -0.70505,-0.25009 -0.88358,-1.39962 -0.73428,-1.88546 0.14889,-0.48596 1.16339,-3.98993 1.16339,-3.98993 l -2.88643,-0.88687 5.91033,-6.40966 c 0,0 -1.9153,-1.80791 -2.61458,-2.58576 -0.69926,-0.77783 -1.25793,-1.60629 -0.68671,-2.24399 0.57131,-0.63767 1.82693,0.87412 2.25129,1.22354 0.42434,0.34944 2.40995,2.33561 2.40995,2.33561 l 0.57349,-0.54318 -0.088,-0.12083 z"
       inkscape:connector-curvature="0"
       style="fill:#00227b;fill-opacity:1" />
  </g>
</svg>
