<?xml version="1.0" encoding="UTF-8" standalone="no"?>
<!-- Created with Inkscape (http://www.inkscape.org/) -->

<svg
   xmlns:dc="http://purl.org/dc/elements/1.1/"
   xmlns:cc="http://creativecommons.org/ns#"
   xmlns:rdf="http://www.w3.org/1999/02/22-rdf-syntax-ns#"
   xmlns:svg="http://www.w3.org/2000/svg"
   xmlns="http://www.w3.org/2000/svg"
   xmlns:sodipodi="http://sodipodi.sourceforge.net/DTD/sodipodi-0.dtd"
   xmlns:inkscape="http://www.inkscape.org/namespaces/inkscape"
   width="210mm"
   height="297mm"
   viewBox="0 0 744.09448819 1052.3622047"
   id="svg2"
   version="1.1"
   inkscape:version="0.91 r13725"
   sodipodi:docname="gpn_garland.svg">
  <defs
     id="defs4" />
  <sodipodi:namedview
     id="base"
     pagecolor="#ffffff"
     bordercolor="#666666"
     borderopacity="1.0"
     inkscape:pageopacity="0.0"
     inkscape:pageshadow="2"
     inkscape:zoom="0.7"
     inkscape:cx="305.50841"
     inkscape:cy="736.75345"
     inkscape:document-units="px"
     inkscape:current-layer="layer1"
     showgrid="false"
     inkscape:window-width="1280"
     inkscape:window-height="790"
     inkscape:window-x="-8"
     inkscape:window-y="-8"
     inkscape:window-maximized="1" />
  <metadata
     id="metadata7">
    <rdf:RDF>
      <cc:Work
         rdf:about="">
        <dc:format>image/svg+xml</dc:format>
        <dc:type
           rdf:resource="http://purl.org/dc/dcmitype/StillImage" />
        <dc:title></dc:title>
      </cc:Work>
    </rdf:RDF>
  </metadata>
  <g
     inkscape:label="Layer 1"
     inkscape:groupmode="layer"
     id="layer1">
    <path
       inkscape:connector-curvature="0"
       style="fill:#5c6359;fill-opacity:1;fill-rule:nonzero;stroke:none"
       d="m 923.57248,252.3528 c -358.43261,122.71483 -747.50489,122.71483 -1105.9375,0 0.26856,-0.79103 0.53711,-1.57715 0.81055,-2.36818 357.90527,122.53906 746.41113,122.53906 1104.32129,0 0.26855,0.79103 0.53711,1.57715 0.80566,2.36818"
       id="path3513" />
    <path
       inkscape:connector-curvature="0"
       style="fill:#3949ab;fill-opacity:1;fill-rule:nonzero;stroke:none"
       d="m -105.949,276.5276 c -19.17481,24.97558 -38.89161,49.67285 -59.14063,74.07715 -2.74414,-31.5918 -4.89746,-63.12989 -6.45996,-94.58985 -0.0342,0.0146 18.27637,14.36035 30.37598,18.09082 12.43652,3.93555 35.24414,2.45605 35.22461,2.42188"
       id="path3515" />
    <path
       inkscape:connector-curvature="0"
       style="fill:#fdd835;fill-opacity:1;fill-rule:nonzero;stroke:none"
       d="m -29.8992,296.74732 c -17.96875,25.83985 -36.484375,51.43066 -55.551757,76.75781 -4.160157,-31.42577 -7.729493,-62.81738 -10.703125,-94.16503 -0.03417,0.0195 18.847656,13.48145 31.064453,16.64062 12.563477,3.34961 35.214844,0.80078 35.190429,0.7666"
       id="path3517" />
    <path
       inkscape:connector-curvature="0"
       style="fill:#ffff6b;fill-opacity:1;fill-rule:nonzero;stroke:none"
       d="m 46.800018,313.4026 c -16.738275,26.64551 -34.0332,53.0664 -51.8798817,79.24805 -5.5712883,-31.19629 -10.5468753,-62.38282 -14.9316403,-93.54982 -0.03418,0.0244 19.3847715,12.58302 31.704097,15.1709 12.6709,2.75879 35.126962,-0.83983 35.107425,-0.86913"
       id="path3519" />
    <path
       inkscape:connector-curvature="0"
       style="fill:#00227b;fill-opacity:1;fill-rule:nonzero;stroke:none"
       d="m 124.00706,326.48853 c -15.47364,27.3877 -31.51368,54.58008 -48.115242,81.55274 -6.972663,-30.89844 -13.349613,-61.82129 -19.135751,-92.74902 -0.03413,0.0244 19.892588,11.66992 32.294925,13.68652 12.753908,2.16796 34.980478,-2.46094 34.956058,-2.49024"
       id="path3521" />
    <path
       inkscape:connector-curvature="0"
       style="fill:#fdd835;fill-opacity:1;fill-rule:nonzero;stroke:none"
       d="m 201.61447,336.00513 c -14.18945,28.07129 -28.95019,55.97168 -44.28223,83.68164 -8.35937,-30.54687 -16.13281,-61.14257 -23.31055,-91.76757 -0.0293,0.0244 20.3711,10.7373 32.83204,12.18261 12.82226,1.57715 34.78515,-4.06738 34.76074,-4.09668"
       id="path3523" />
    <path
       inkscape:connector-curvature="0"
       style="fill:#c6a700;fill-opacity:1;fill-rule:nonzero;stroke:none"
       d="m 279.48557,341.95728 c -12.88086,28.6914 -26.33789,57.23633 -40.37598,85.62012 -9.73633,-30.13184 -18.88183,-60.33692 -27.44141,-90.60059 -0.0293,0.0244 20.81544,9.79005 33.31544,10.66406 12.8662,0.98634 34.52636,-5.65429 34.50195,-5.68359"
       id="path3525" />
    <path
       inkscape:connector-curvature="0"
       style="fill:#3949ab;fill-opacity:1;fill-rule:nonzero;stroke:none"
       d="m 357.50314,344.3401 c -11.55273,29.24805 -23.68652,58.3789 -36.40136,87.37305 -11.09864,-29.65333 -21.61134,-59.40919 -31.53321,-89.24805 -0.0293,0.0292 21.22559,8.82812 33.74512,9.12597 12.88574,0.40528 34.21875,-7.22656 34.18945,-7.25097"
       id="path3527" />
    <path
       inkscape:connector-curvature="0"
       style="fill:#c6a700;fill-opacity:1;fill-rule:nonzero;stroke:none"
       d="m 435.54513,343.15357 c -10.20508,29.7461 -21.00097,59.39941 -32.37304,88.9502 -12.44141,-29.11621 -24.30176,-58.35937 -35.57617,-87.71485 -0.0292,0.0244 21.60156,7.84669 34.12109,7.57325 12.89062,-0.19044 33.85255,-8.78419 33.82812,-8.8086"
       id="path3529" />
    <path
       inkscape:connector-curvature="0"
       style="fill:#ffff6b;fill-opacity:1;fill-rule:nonzero;stroke:none"
       d="m 513.47482,338.4026 c -8.83789,30.18066 -18.27148,60.29785 -28.29102,90.33691 -13.76464,-28.51563 -26.94823,-57.1875 -39.55566,-86.00098 -0.0292,0.0292 21.93848,6.85547 34.43848,6.01074 12.87597,-0.77636 33.4375,-10.32226 33.4082,-10.34667"
       id="path3531" />
    <path
       inkscape:connector-curvature="0"
       style="fill:#00227b;fill-opacity:1;fill-rule:nonzero;stroke:none"
       d="m 591.18478,330.08228 c -7.46094,30.55664 -15.51757,61.07422 -24.16504,91.53809 -15.06836,-27.85156 -29.56055,-55.89356 -43.48144,-84.0918 -0.0244,0.0292 22.25098,5.83985 34.71192,4.42383 12.84178,-1.36719 32.96386,-11.85059 32.93456,-11.87012"
       id="path3533" />
    <path
       inkscape:connector-curvature="0"
       style="fill:#3949ab;fill-opacity:1;fill-rule:nonzero;stroke:none"
       d="m 668.54318,318.19263 c -6.07421,30.86914 -12.74414,61.72852 -20.00488,92.5586 -16.3379,-27.12891 -32.11915,-54.47266 -47.32911,-82.00683 -0.0244,0.0341 22.51954,4.81445 34.92188,2.82226 12.78321,-1.95801 32.44141,-13.35449 32.41211,-13.37403"
       id="path3535" />
    <path
       inkscape:connector-curvature="0"
       style="fill:#fdd835;fill-opacity:1;fill-rule:nonzero;stroke:none"
       d="m 745.42307,302.73365 c -4.67285,31.12305 -9.94141,62.26075 -15.80079,93.39843 -17.59765,-26.34765 -34.63379,-52.93456 -51.1084,-79.73632 -0.0292,0.0341 22.75391,3.76954 35.07813,1.20605 12.7002,-2.54883 31.86523,-14.84375 31.83106,-14.86816"
       id="path3537" />
    <path
       inkscape:connector-curvature="0"
       style="fill:#c6a700;fill-opacity:1;fill-rule:nonzero;stroke:none"
       d="m 821.70724,283.71021 c -3.27149,31.31347 -7.1289,62.6709 -11.58202,94.05274 -18.81837,-25.50782 -37.08497,-51.27442 -54.79981,-77.28515 -0.0244,0.0341 22.94922,2.70995 35.17578,-0.42969 12.60254,-3.13478 31.23535,-16.31836 31.20605,-16.3379"
       id="path3539" />
    <path
       inkscape:connector-curvature="0"
       style="fill:#ffff6b;fill-opacity:1;fill-rule:nonzero;stroke:none"
       d="m 897.26877,261.12232 c -1.86035,31.44043 -4.30176,62.9541 -7.33886,94.5166 -20.01465,-24.59961 -39.48243,-49.4873 -58.41309,-74.64844 -0.0195,0.039 23.12011,1.63087 35.22461,-2.07518 12.48046,-3.72559 30.55664,-17.77833 30.52734,-17.79298"
       id="path3541" />
  </g>
</svg>
